<?xml version="1.0" standalone="no"?>
<!DOCTYPE svg PUBLIC "-//W3C//DTD SVG 20010904//EN"
 "http://www.w3.org/TR/2001/REC-SVG-20010904/DTD/svg10.dtd">
<svg version="1.0" xmlns="http://www.w3.org/2000/svg"
 width="1080.000000pt" height="1080.000000pt" viewBox="0 0 1080.000000 1080.000000"
 preserveAspectRatio="xMidYMid meet">

<g transform="translate(0.000000,1080.000000) scale(0.100000,-0.100000)"
fill="#FFFFFF" stroke="none">
<path d="M0 5400 l0 -5400 5400 0 5400 0 0 5400 0 5400 -5400 0 -5400 0 0
-5400z m1091 2377 c19 -12 42 -38 51 -57 34 -68 25 -113 -87 -443 l-104 -307
195 2 196 3 112 340 c62 187 118 351 125 365 19 35 71 89 103 106 43 22 129
18 168 -8 55 -38 74 -71 78 -141 3 -59 -8 -94 -218 -712 -125 -367 -224 -672
-226 -700 -6 -65 11 -97 58 -109 77 -19 182 37 259 139 34 46 58 104 144 348
57 162 112 314 122 339 41 92 138 171 248 203 85 25 218 17 305 -18 54 -22 66
-24 73 -12 4 8 28 27 53 41 57 34 134 36 191 7 51 -26 86 -92 79 -148 -3 -23
-66 -218 -141 -434 -74 -216 -135 -407 -135 -425 0 -43 21 -60 71 -58 55 2
116 35 170 93 37 39 48 59 54 96 4 26 65 214 137 417 71 204 176 505 233 668
118 336 132 367 177 399 49 35 141 39 188 7 50 -34 72 -81 66 -143 -2 -27 -39
-147 -80 -265 -42 -118 -76 -215 -76 -215 0 0 46 0 103 0 96 0 107 -2 169 -33
147 -72 225 -229 198 -397 -8 -52 -68 -233 -126 -379 -6 -15 -3 -17 12 -13 10
3 35 8 55 11 47 8 123 59 147 99 11 18 64 160 118 317 104 300 127 346 194
381 102 55 230 -16 230 -127 0 -18 -63 -212 -140 -433 -77 -221 -140 -408
-140 -415 0 -8 10 -27 23 -42 44 -51 131 -31 208 48 65 67 86 114 194 421
l101 292 -57 5 c-65 6 -92 25 -110 77 -15 45 -4 95 28 134 37 44 80 59 165 59
l73 0 95 267 c52 147 104 281 115 297 11 17 36 41 54 53 45 31 132 32 179 3
34 -21 71 -87 72 -127 0 -12 -36 -127 -80 -255 -44 -128 -80 -234 -80 -235 0
-2 33 -3 73 -3 87 0 129 -21 147 -74 17 -52 -1 -106 -50 -150 -22 -20 -41 -37
-43 -37 -1 -1 -53 -4 -115 -8 l-114 -6 -114 -325 c-63 -179 -114 -338 -114
-353 0 -71 52 -111 140 -109 123 3 251 125 332 315 39 92 60 121 102 141 94
44 206 -7 206 -95 0 -45 -59 -187 -121 -292 -60 -101 -194 -233 -285 -280
-195 -101 -431 -87 -584 33 l-36 28 -57 -38 c-83 -56 -158 -81 -258 -87 -128
-8 -236 23 -318 93 -36 30 -91 119 -91 148 0 16 -5 17 -32 11 -18 -4 -78 -10
-134 -14 l-101 -6 -44 -54 c-55 -67 -132 -121 -218 -152 -57 -21 -84 -24 -191
-24 -142 1 -203 18 -286 81 l-45 35 -57 -36 c-104 -64 -162 -79 -297 -79 -137
0 -202 19 -270 78 l-39 33 -55 -39 c-148 -104 -337 -103 -469 1 l-48 38 -60
-36 c-34 -21 -85 -45 -115 -55 -72 -24 -221 -32 -290 -16 -129 30 -238 113
-287 218 -24 51 -27 68 -26 167 0 109 1 112 62 284 34 96 62 176 62 178 0 2
-88 2 -196 1 l-197 -3 -126 -371 c-69 -203 -134 -382 -143 -396 -54 -82 -172
-113 -253 -66 -22 13 -50 39 -62 57 -41 60 -34 97 87 447 60 175 110 322 110
325 0 4 -23 9 -51 11 -87 9 -144 73 -136 154 9 89 67 127 203 132 l91 4 123
351 c68 194 134 368 146 386 13 19 42 48 65 63 56 37 139 39 190 5z m3819 -58
c55 -31 84 -81 88 -153 3 -54 0 -66 -26 -107 -50 -78 -145 -109 -229 -74 -48
20 -71 41 -95 89 -85 166 98 337 262 245z m2628 -2178 c48 -24 82 -84 82 -143
0 -36 -100 -352 -154 -488 -5 -13 9 -15 96 -15 91 0 110 -3 158 -26 82 -39
135 -90 172 -167 29 -59 33 -75 32 -147 0 -57 -7 -96 -23 -137 -23 -60 -91
-144 -134 -167 l-25 -13 20 -34 c35 -59 34 -128 -1 -246 -17 -58 -31 -115 -31
-126 0 -53 85 -47 162 11 85 64 127 146 228 447 51 151 103 296 115 321 60
118 174 217 302 260 54 19 89 24 168 24 120 -1 186 -18 272 -74 174 -112 222
-336 117 -543 -34 -67 -135 -168 -202 -202 -135 -69 -295 -73 -427 -10 -27 13
-50 22 -50 21 -1 -1 -6 -15 -13 -30 -17 -38 -15 -112 3 -147 38 -73 130 -112
265 -112 224 -1 422 124 520 327 21 44 73 172 114 284 l76 204 -28 56 c-89
183 46 404 227 371 98 -18 163 -92 169 -194 l4 -63 52 -18 c206 -72 335 -185
352 -307 9 -63 -6 -120 -91 -359 -41 -115 -75 -224 -75 -243 0 -20 8 -40 19
-50 64 -58 217 111 314 348 36 88 75 130 131 140 81 15 186 -48 186 -112 0
-55 -80 -237 -157 -357 -136 -211 -318 -323 -506 -313 -188 10 -322 134 -335
310 -6 81 3 119 76 318 79 219 76 246 -36 289 l-53 21 -8 -23 c-5 -12 -34 -92
-65 -177 -136 -370 -255 -527 -491 -644 -147 -74 -230 -91 -425 -90 -151 0
-172 3 -245 27 -84 28 -183 82 -224 122 l-24 24 -56 -46 c-109 -89 -231 -133
-372 -133 -171 0 -293 75 -329 204 -18 64 -8 206 18 281 12 32 22 62 22 66 0
4 -19 0 -42 -8 -55 -19 -121 -11 -170 22 l-37 24 -6 -22 c-4 -12 -38 -120 -77
-240 -76 -238 -96 -273 -173 -308 -76 -35 -180 -19 -222 34 l-20 26 -69 -26
c-255 -93 -572 -59 -727 77 -19 16 -38 30 -42 30 -5 0 -31 -17 -59 -39 -117
-89 -235 -126 -381 -118 -113 6 -176 26 -242 77 l-53 40 -57 -41 c-151 -105
-353 -104 -486 2 l-37 30 -30 -21 c-16 -11 -59 -35 -97 -53 -63 -30 -75 -32
-173 -32 -95 0 -111 3 -167 29 -144 66 -221 212 -193 367 6 34 38 136 71 226
32 90 59 179 59 196 -1 50 -24 72 -109 102 l-38 13 -69 -186 c-46 -127 -78
-197 -98 -221 -95 -107 -256 -67 -256 65 0 22 36 133 87 271 l86 234 -23 47
c-27 56 -37 151 -21 208 14 53 63 125 99 146 80 48 185 38 249 -23 49 -48 66
-86 67 -151 l1 -56 40 -12 c88 -25 224 -100 278 -153 117 -114 117 -190 -2
-516 -44 -123 -81 -234 -81 -247 0 -34 35 -67 63 -58 46 13 83 42 126 94 38
49 56 93 166 406 67 193 135 375 151 403 53 99 163 172 288 194 80 13 199 -1
275 -34 l50 -21 33 27 c69 58 158 72 232 35 63 -31 81 -63 81 -140 0 -58 -16
-110 -138 -460 -136 -388 -156 -465 -129 -492 19 -19 93 -13 141 11 89 46 163
139 176 221 7 48 107 361 157 495 60 158 150 260 282 321 228 104 501 6 566
-203 24 -77 25 -126 5 -211 -42 -179 -155 -260 -282 -202 -79 35 -104 121 -63
211 37 82 18 139 -47 139 -64 0 -88 -38 -178 -291 -69 -194 -80 -233 -80 -291
0 -58 4 -72 30 -109 44 -63 107 -92 209 -97 139 -7 268 44 375 147 110 108
116 120 357 816 122 353 231 659 242 681 21 40 61 82 97 102 31 18 102 14 143
-7z m-3851 -47 c85 -63 80 -180 -11 -248 -25 -19 -45 -21 -264 -26 l-236 -5
-273 -780 c-149 -429 -281 -799 -292 -822 -44 -92 -174 -131 -271 -81 -57 29
-94 94 -86 149 3 20 123 372 266 784 143 411 260 749 260 751 0 2 -91 4 -202
4 -186 0 -206 2 -236 20 -61 37 -80 130 -39 190 31 46 64 69 117 79 25 5 314
8 642 8 586 -2 597 -2 625 -23z"/>
<path d="M3652 6869 c-84 -42 -94 -61 -222 -425 -73 -210 -84 -270 -55 -311
48 -68 203 -33 235 53 8 19 3 34 -23 75 -29 48 -32 59 -32 133 0 70 3 86 25
118 31 46 90 84 141 93 44 8 55 25 86 137 19 68 7 110 -38 133 -38 20 -66 19
-117 -6z"/>
<path d="M2423 6850 c-46 -28 -71 -84 -162 -371 -97 -307 -102 -354 -39 -378
56 -21 137 28 179 110 25 50 137 394 154 474 16 78 6 131 -30 163 -32 27 -60
28 -102 2z"/>
<path d="M7485 4613 c-56 -10 -70 -17 -110 -54 -41 -37 -62 -77 -90 -167 -6
-22 -5 -23 14 -12 12 6 56 10 99 9 88 -1 116 7 153 47 72 78 65 150 -17 172
-16 5 -38 7 -49 5z"/>
<path d="M8665 4609 c-48 -13 -84 -60 -121 -156 l-33 -88 31 -13 c41 -18 139
-17 174 1 57 30 78 62 82 131 4 55 1 66 -19 89 -29 33 -73 47 -114 36z"/>
<path d="M5056 4569 c-15 -12 -37 -42 -50 -67 -29 -59 -196 -584 -196 -618 0
-121 141 -118 219 4 46 74 172 470 178 562 5 71 4 78 -22 108 -33 39 -87 44
-129 11z"/>
</g>
</svg>
